<?xml version="1.0" standalone="no"?><svg xmlns="http://www.w3.org/2000/svg" viewBox="0 0 1440 320"><path fill="#31f7e8" fill-opacity="0.6" d="M0,64L34.3,96C68.6,128,137,192,206,208C274.3,224,343,192,411,197.3C480,203,549,245,617,272C685.7,299,754,309,823,314.7C891.4,320,960,320,1029,293.3C1097.1,267,1166,213,1234,192C1302.9,171,1371,181,1406,186.7L1440,192L1440,320L1405.7,320C1371.4,320,1303,320,1234,320C1165.7,320,1097,320,1029,320C960,320,891,320,823,320C754.3,320,686,320,617,320C548.6,320,480,320,411,320C342.9,320,274,320,206,320C137.1,320,69,320,34,320L0,320Z"></path></svg>