<?xml version="1.0" encoding="UTF-8"?>
<svg width="752pt" height="752pt" version="1.1" viewBox="0 0 752 752" xmlns="http://www.w3.org/2000/svg">
 <path d="m474.51 586.65c-55.836 0-132.6-39.262-201.27-107.88-96.656-96.656-135.07-209.65-87.469-257.29l43.758-43.758c8-8.0547 18.883-12.586 30.238-12.586 11.352 0 22.234 4.5312 30.238 12.586l43.758 43.711c3.9453 3.9727 7.0391 8.7109 9.0938 13.922 3.3164 7.793 4.2148 16.402 2.5742 24.715-1.6367 8.3086-5.7344 15.934-11.762 21.887l-39.07 39.07c3.2188 25.762 21.973 58.297 50.012 86.332 28.035 28.035 60.617 46.789 86.379 50.012l39.07-39.07c5.9922-6.0742 13.676-10.199 22.051-11.828 8.375-1.6328 17.047-0.69531 24.883 2.6875 5.0586 2.0781 9.6484 5.1562 13.496 9.0469l43.758 43.758c8.0547 8 12.582 18.883 12.582 30.238 0 11.352-4.5273 22.234-12.582 30.238l-43.711 43.758c-13.828 13.875-33.152 20.457-56.023 20.457zm-214.77-397.81v0.003906c-5.0586-0.03125-9.918 1.9648-13.5 5.5391l-43.758 43.711c-36.938 36.938 3.125 139.42 87.469 223.81 84.348 84.395 186.88 124.55 223.82 87.613l43.711-43.758c3.6172-3.5586 5.6523-8.4219 5.6523-13.496s-2.0352-9.9375-5.6523-13.496l-43.711-43.758v-0.003907c-1.6562-1.6875-3.6367-3.0273-5.8242-3.9297-3.5156-1.5391-7.4141-1.9844-11.188-1.2852-3.7734 0.70312-7.25 2.5195-9.9805 5.2148l-42.957 42.957c-2.3594 2.3359-5.582 3.5859-8.9023 3.457-32.582-1.2344-72.598-22.922-107.03-57.305-34.43-34.383-56.074-74.445-57.352-107.03-0.14844-3.3242 1.1055-6.5547 3.457-8.9062l42.953-42.953c2.6836-2.668 4.5039-6.082 5.2305-9.793 0.72656-3.7148 0.32422-7.5625-1.1562-11.043-0.91797-2.3125-2.3047-4.4102-4.0742-6.1562l-43.711-43.762c-3.5781-3.5742-8.4375-5.5703-13.496-5.5391z" fill="#45dee0"/>
</svg>
